<mxfile host="app.diagrams.net" agent="Mozilla/5.0 (Windows NT 10.0; Win64; x64) AppleWebKit/537.36 (KHTML, like Gecko) Chrome/137.0.0.0 Safari/537.36" version="27.1.4">
  <diagram name="Page-1" id="FhQWMNnF3R9wmjdMntHF">
    <mxGraphModel dx="2038" dy="626" grid="1" gridSize="10" guides="1" tooltips="1" connect="1" arrows="1" fold="1" page="1" pageScale="1" pageWidth="850" pageHeight="1100" math="0" shadow="0">
      <root>
        <mxCell id="0" />
        <mxCell id="1" parent="0" />
        <mxCell id="MugBKoGFxdHCwpsHW_FZ-3" value="hf-utils-and-drivers" style="rounded=1;whiteSpace=wrap;html=1;verticalAlign=top;" vertex="1" parent="1">
          <mxGeometry x="-50" y="260" width="950" height="360" as="geometry" />
        </mxCell>
        <mxCell id="MugBKoGFxdHCwpsHW_FZ-4" value="" style="group" vertex="1" connectable="0" parent="1">
          <mxGeometry x="-20" y="330" width="300" height="180" as="geometry" />
        </mxCell>
        <mxCell id="ujgzsudaIQIlg2-sO98x-5" value="hf-utils" style="rounded=1;whiteSpace=wrap;html=1;verticalAlign=top;" parent="MugBKoGFxdHCwpsHW_FZ-4" vertex="1">
          <mxGeometry width="300" height="180" as="geometry" />
        </mxCell>
        <mxCell id="ujgzsudaIQIlg2-sO98x-1" value="hf-utils-thread-safe" style="rounded=1;whiteSpace=wrap;html=1;fillColor=#d5e8d4;strokeColor=#82b366;" parent="MugBKoGFxdHCwpsHW_FZ-4" vertex="1">
          <mxGeometry x="160" y="30" width="120" height="60" as="geometry" />
        </mxCell>
        <mxCell id="ujgzsudaIQIlg2-sO98x-2" value="hf-utils-general" style="rounded=1;whiteSpace=wrap;html=1;labelBackgroundColor=none;fillColor=#d5e8d4;strokeColor=#82b366;" parent="MugBKoGFxdHCwpsHW_FZ-4" vertex="1">
          <mxGeometry x="20" y="30" width="120" height="60" as="geometry" />
        </mxCell>
        <mxCell id="ujgzsudaIQIlg2-sO98x-3" value="hf-utils-canopen" style="rounded=1;whiteSpace=wrap;html=1;fillColor=#d5e8d4;strokeColor=#82b366;" parent="MugBKoGFxdHCwpsHW_FZ-4" vertex="1">
          <mxGeometry x="20" y="100" width="120" height="60" as="geometry" />
        </mxCell>
        <mxCell id="ujgzsudaIQIlg2-sO98x-4" value="hf-utils-rtos-wrap" style="rounded=1;whiteSpace=wrap;html=1;fillColor=#e1d5e7;strokeColor=#9673a6;" parent="MugBKoGFxdHCwpsHW_FZ-4" vertex="1">
          <mxGeometry x="160" y="100" width="120" height="60" as="geometry" />
        </mxCell>
        <mxCell id="MugBKoGFxdHCwpsHW_FZ-7" value="" style="group" vertex="1" connectable="0" parent="1">
          <mxGeometry x="320" y="290" width="550" height="310" as="geometry" />
        </mxCell>
        <mxCell id="MugBKoGFxdHCwpsHW_FZ-2" value="hf-drivers" style="rounded=1;whiteSpace=wrap;html=1;verticalAlign=top;" vertex="1" parent="MugBKoGFxdHCwpsHW_FZ-7">
          <mxGeometry width="550" height="310" as="geometry" />
        </mxCell>
        <mxCell id="MugBKoGFxdHCwpsHW_FZ-5" value="" style="group" vertex="1" connectable="0" parent="MugBKoGFxdHCwpsHW_FZ-7">
          <mxGeometry x="20" y="40" width="190" height="180" as="geometry" />
        </mxCell>
        <mxCell id="ujgzsudaIQIlg2-sO98x-6" value="hf-drivers-internal" style="rounded=1;whiteSpace=wrap;html=1;verticalAlign=top;" parent="MugBKoGFxdHCwpsHW_FZ-5" vertex="1">
          <mxGeometry width="190" height="180" as="geometry" />
        </mxCell>
        <mxCell id="ujgzsudaIQIlg2-sO98x-8" value="hf-internal-interface-wrap" style="rounded=1;whiteSpace=wrap;html=1;fillColor=#ffe6cc;strokeColor=#d79b00;" parent="MugBKoGFxdHCwpsHW_FZ-5" vertex="1">
          <mxGeometry x="20" y="30" width="150" height="60" as="geometry" />
        </mxCell>
        <mxCell id="ujgzsudaIQIlg2-sO98x-9" value="hf-pincfg" style="rounded=1;whiteSpace=wrap;html=1;fillColor=#ffe6cc;strokeColor=#d79b00;" parent="MugBKoGFxdHCwpsHW_FZ-5" vertex="1">
          <mxGeometry x="40" y="100" width="110" height="60" as="geometry" />
        </mxCell>
        <mxCell id="MugBKoGFxdHCwpsHW_FZ-6" value="" style="group" vertex="1" connectable="0" parent="MugBKoGFxdHCwpsHW_FZ-7">
          <mxGeometry x="230" y="40" width="300" height="250" as="geometry" />
        </mxCell>
        <mxCell id="ujgzsudaIQIlg2-sO98x-14" value="hf-drivers-external" style="rounded=1;whiteSpace=wrap;html=1;verticalAlign=top;" parent="MugBKoGFxdHCwpsHW_FZ-6" vertex="1">
          <mxGeometry width="300" height="250" as="geometry" />
        </mxCell>
        <mxCell id="ujgzsudaIQIlg2-sO98x-15" value="hf-as5047u-driver" style="rounded=1;whiteSpace=wrap;html=1;fillColor=#d5e8d4;strokeColor=#82b366;" parent="MugBKoGFxdHCwpsHW_FZ-6" vertex="1">
          <mxGeometry x="160" y="30" width="120" height="60" as="geometry" />
        </mxCell>
        <mxCell id="ujgzsudaIQIlg2-sO98x-16" value="hf-tmc9660-driver" style="rounded=1;whiteSpace=wrap;html=1;fillColor=#d5e8d4;strokeColor=#82b366;" parent="MugBKoGFxdHCwpsHW_FZ-6" vertex="1">
          <mxGeometry x="20" y="30" width="120" height="60" as="geometry" />
        </mxCell>
        <mxCell id="ujgzsudaIQIlg2-sO98x-17" value="hf-pcal95555-driver" style="rounded=1;whiteSpace=wrap;html=1;fillColor=#d5e8d4;strokeColor=#82b366;" parent="MugBKoGFxdHCwpsHW_FZ-6" vertex="1">
          <mxGeometry x="20" y="100" width="120" height="60" as="geometry" />
        </mxCell>
        <mxCell id="ujgzsudaIQIlg2-sO98x-18" value="hf-bno08x-driver" style="rounded=1;whiteSpace=wrap;html=1;fillColor=#d5e8d4;strokeColor=#82b366;" parent="MugBKoGFxdHCwpsHW_FZ-6" vertex="1">
          <mxGeometry x="160" y="100" width="120" height="60" as="geometry" />
        </mxCell>
        <mxCell id="MugBKoGFxdHCwpsHW_FZ-1" value="hf-ws2812-rmt-driver" style="rounded=1;whiteSpace=wrap;html=1;fillColor=#ffe6cc;strokeColor=#d79b00;" vertex="1" parent="MugBKoGFxdHCwpsHW_FZ-6">
          <mxGeometry x="20" y="170" width="120" height="60" as="geometry" />
        </mxCell>
        <mxCell id="MugBKoGFxdHCwpsHW_FZ-18" value="" style="group" vertex="1" connectable="0" parent="1">
          <mxGeometry x="20" y="740" width="260" height="60" as="geometry" />
        </mxCell>
        <mxCell id="MugBKoGFxdHCwpsHW_FZ-15" value="" style="rounded=1;whiteSpace=wrap;html=1;fillColor=#e1d5e7;strokeColor=#9673a6;" vertex="1" parent="MugBKoGFxdHCwpsHW_FZ-18">
          <mxGeometry width="120" height="60" as="geometry" />
        </mxCell>
        <mxCell id="MugBKoGFxdHCwpsHW_FZ-17" value="&lt;b&gt;= RTOS DEPENDENT&lt;/b&gt;" style="text;html=1;align=center;verticalAlign=middle;resizable=0;points=[];autosize=1;strokeColor=none;fillColor=none;" vertex="1" parent="MugBKoGFxdHCwpsHW_FZ-18">
          <mxGeometry x="120" y="15" width="140" height="30" as="geometry" />
        </mxCell>
        <mxCell id="MugBKoGFxdHCwpsHW_FZ-19" value="" style="group" vertex="1" connectable="0" parent="1">
          <mxGeometry x="20" y="810" width="300" height="60" as="geometry" />
        </mxCell>
        <mxCell id="MugBKoGFxdHCwpsHW_FZ-13" value="" style="rounded=1;whiteSpace=wrap;html=1;fillColor=#ffe6cc;strokeColor=#d79b00;" vertex="1" parent="MugBKoGFxdHCwpsHW_FZ-19">
          <mxGeometry width="120" height="60" as="geometry" />
        </mxCell>
        <mxCell id="MugBKoGFxdHCwpsHW_FZ-14" value="&lt;b&gt;= HARDWARE DEPENDENT&lt;/b&gt;" style="text;html=1;align=center;verticalAlign=middle;resizable=0;points=[];autosize=1;strokeColor=none;fillColor=none;" vertex="1" parent="MugBKoGFxdHCwpsHW_FZ-19">
          <mxGeometry x="120" y="15" width="180" height="30" as="geometry" />
        </mxCell>
        <mxCell id="MugBKoGFxdHCwpsHW_FZ-20" value="" style="group" vertex="1" connectable="0" parent="1">
          <mxGeometry x="20" y="670" width="350" height="60" as="geometry" />
        </mxCell>
        <mxCell id="MugBKoGFxdHCwpsHW_FZ-9" value="" style="rounded=1;whiteSpace=wrap;html=1;fillColor=#d5e8d4;strokeColor=#82b366;" vertex="1" parent="MugBKoGFxdHCwpsHW_FZ-20">
          <mxGeometry width="120" height="60" as="geometry" />
        </mxCell>
        <mxCell id="MugBKoGFxdHCwpsHW_FZ-10" value="&lt;b&gt;= HARDWARE and RTOS AGNOSTIC&lt;/b&gt;" style="text;html=1;align=center;verticalAlign=middle;resizable=0;points=[];autosize=1;strokeColor=none;fillColor=none;" vertex="1" parent="MugBKoGFxdHCwpsHW_FZ-20">
          <mxGeometry x="120" y="15" width="230" height="30" as="geometry" />
        </mxCell>
      </root>
    </mxGraphModel>
  </diagram>
</mxfile>
